<svg xmlns="http://www.w3.org/2000/svg" width="850" height="355.122" viewBox="0 0 850 355.122">
  <g id="Group_783" data-name="Group 783" transform="translate(-570 -2021.701)">
    <g id="Group_782" data-name="Group 782" transform="translate(2618.47 -122.697)">
      <path id="Path_386" data-name="Path 386" d="M-1267.74,2233.3v-23.6h-508.772l-15.527,16.193-15.527-16.193h-240.9v23.6a10.429,10.429,0,0,1,10.429,10.429,10.39,10.39,0,0,1-3.056,7.374,10.39,10.39,0,0,1-7.374,3.055v16.1a10.429,10.429,0,0,1,10.429,10.429,10.39,10.39,0,0,1-3.056,7.374,10.39,10.39,0,0,1-7.374,3.056v16.1a10.429,10.429,0,0,1,10.429,10.429,10.391,10.391,0,0,1-3.056,7.374,10.391,10.391,0,0,1-7.374,3.055v16.1a10.429,10.429,0,0,1,10.429,10.429,10.389,10.389,0,0,1-3.056,7.374,10.389,10.389,0,0,1-7.374,3.056v16.1a10.429,10.429,0,0,1,10.429,10.429,10.39,10.39,0,0,1-3.056,7.374,10.389,10.389,0,0,1-7.374,3.056v16.1a10.429,10.429,0,0,1,10.429,10.429,10.39,10.39,0,0,1-3.056,7.374,10.39,10.39,0,0,1-7.374,3.056v16.1a10.429,10.429,0,0,1,10.429,10.429,10.39,10.39,0,0,1-3.056,7.374,10.389,10.389,0,0,1-7.374,3.056v23.6h240.9l15.21-15.863.317-.33.317.33,15.21,15.863h508.772v-23.6a10.389,10.389,0,0,1-7.374-3.056,10.389,10.389,0,0,1-3.056-7.374,10.429,10.429,0,0,1,10.429-10.429v-16.1a10.39,10.39,0,0,1-7.374-3.056,10.39,10.39,0,0,1-3.056-7.374,10.429,10.429,0,0,1,10.429-10.429V2402a10.389,10.389,0,0,1-7.374-3.056,10.389,10.389,0,0,1-3.056-7.374,10.429,10.429,0,0,1,10.429-10.429v-16.1a10.389,10.389,0,0,1-7.374-3.056,10.389,10.389,0,0,1-3.056-7.374,10.429,10.429,0,0,1,10.429-10.429v-16.1a10.391,10.391,0,0,1-7.374-3.055,10.39,10.39,0,0,1-3.056-7.374,10.429,10.429,0,0,1,10.429-10.429v-16.1a10.39,10.39,0,0,1-7.374-3.056,10.39,10.39,0,0,1-3.056-7.374,10.429,10.429,0,0,1,10.429-10.429v-16.1a10.39,10.39,0,0,1-7.374-3.055,10.39,10.39,0,0,1-3.056-7.374A10.429,10.429,0,0,1-1267.74,2233.3Zm-523.841,249.113a.458.458,0,0,1-.457.458.458.458,0,0,1-.458-.458v-2.744a.458.458,0,0,1,.458-.458.458.458,0,0,1,.457.458Zm0-7.428a.457.457,0,0,1-.457.457.457.457,0,0,1-.458-.457v-5.6a.457.457,0,0,1,.458-.457.457.457,0,0,1,.457.457Zm0-11.2a.458.458,0,0,1-.457.457.458.458,0,0,1-.458-.457v-5.6a.457.457,0,0,1,.458-.457.457.457,0,0,1,.457.457Zm0-11.2a.458.458,0,0,1-.457.458.458.458,0,0,1-.458-.458v-5.6a.458.458,0,0,1,.458-.457.458.458,0,0,1,.457.457Zm0-11.2a.458.458,0,0,1-.457.458.458.458,0,0,1-.458-.458v-5.6a.458.458,0,0,1,.458-.457.458.458,0,0,1,.457.457Zm0-11.2a.458.458,0,0,1-.457.457.458.458,0,0,1-.458-.457v-5.6a.458.458,0,0,1,.458-.458.458.458,0,0,1,.457.458Zm0-11.2a.458.458,0,0,1-.457.457.458.458,0,0,1-.458-.457v-5.6a.458.458,0,0,1,.458-.458.458.458,0,0,1,.457.458Zm0-11.2a.458.458,0,0,1-.457.457.458.458,0,0,1-.458-.457v-5.6a.458.458,0,0,1,.458-.458.458.458,0,0,1,.457.458Zm0-11.2a.458.458,0,0,1-.457.458.458.458,0,0,1-.458-.458V2391a.457.457,0,0,1,.458-.457.457.457,0,0,1,.457.457Zm0-11.2a.458.458,0,0,1-.457.458.458.458,0,0,1-.458-.458v-5.6a.458.458,0,0,1,.458-.457.458.458,0,0,1,.457.457Zm0-11.2a.458.458,0,0,1-.457.458.458.458,0,0,1-.458-.458v-5.6a.458.458,0,0,1,.458-.458.458.458,0,0,1,.457.458Zm0-11.2a.458.458,0,0,1-.457.458.458.458,0,0,1-.458-.458v-5.6a.458.458,0,0,1,.458-.458.458.458,0,0,1,.457.458Zm0-11.2a.458.458,0,0,1-.457.458.458.458,0,0,1-.458-.458v-5.6a.458.458,0,0,1,.458-.458.458.458,0,0,1,.457.458Zm0-11.2a.458.458,0,0,1-.457.457.458.458,0,0,1-.458-.457v-5.6a.458.458,0,0,1,.458-.457.458.458,0,0,1,.457.457Zm0-11.2a.458.458,0,0,1-.457.458.458.458,0,0,1-.458-.458v-5.6a.458.458,0,0,1,.458-.458.458.458,0,0,1,.457.458Zm0-11.2a.458.458,0,0,1-.457.457.458.458,0,0,1-.458-.457v-5.6a.457.457,0,0,1,.458-.457.457.457,0,0,1,.457.457Zm0-11.2a.458.458,0,0,1-.457.458.458.458,0,0,1-.458-.458v-5.6a.458.458,0,0,1,.458-.458.458.458,0,0,1,.457.458Zm0-11.2a.458.458,0,0,1-.457.458.458.458,0,0,1-.458-.458v-5.6a.458.458,0,0,1,.458-.457.458.458,0,0,1,.457.457Zm0-11.2a.457.457,0,0,1-.457.457.457.457,0,0,1-.458-.457v-5.6a.458.458,0,0,1,.458-.457.458.458,0,0,1,.457.457Zm0-11.2a.458.458,0,0,1-.457.457.458.458,0,0,1-.458-.457v-5.6a.458.458,0,0,1,.458-.458.458.458,0,0,1,.457.458Zm0-11.2a.458.458,0,0,1-.457.457.458.458,0,0,1-.458-.457v-5.6a.458.458,0,0,1,.458-.457.458.458,0,0,1,.457.457Zm0-11.2a.458.458,0,0,1-.457.457.458.458,0,0,1-.458-.457v-5.6a.457.457,0,0,1,.458-.457.457.457,0,0,1,.457.457Zm0-11.2a.458.458,0,0,1-.457.458.458.458,0,0,1-.458-.458v-5.6a.458.458,0,0,1,.458-.457.458.458,0,0,1,.457.457Zm0-10.031a.47.47,0,0,1-.457.479.47.47,0,0,1-.458-.479v-2.883a.47.47,0,0,1,.458-.479.47.47,0,0,1,.457.479Z" fill="#ee6983"/>
      <g id="Group_475" data-name="Group 475" transform="translate(-1987.663 2276.729)">
        <path id="Path_387" data-name="Path 387" d="M-1634.472,2775.457a77.88,77.88,0,0,0-77.88,77.88,77.88,77.88,0,0,0,77.88,77.88,77.88,77.88,0,0,0,77.88-77.88A77.88,77.88,0,0,0-1634.472,2775.457Zm-23.439,23.82c-2.7,7.327,18.861,5.868,12.352,19.162-4.187-.548-11.383-7.012-12.109-9.672-1.311,3.864,5.291,9.611,9.622,10.6l-.1.033C-1667.338,2815.9-1663.7,2803.431-1657.911,2799.277Zm53.078,26.736c-.467,2.352-7.968,1.327-14.6,5.588-.341.219-6.363,4.195-7.751,10.257-1.781,7.774,6.08,10.139,6.741,19.022.552,7.429-4.674,9.438-8.163,19.716a43.182,43.182,0,0,0-1.164,22.873c-13.445,14.209-32.269-12.934-34-36.675-1.7-23.3,1.823-53.739,27-40.225.515-7.252,3.756-14.828,8.892-19.1a13.116,13.116,0,0,1,6.294,3.243l-.01,0c-6.052,1.809-10.535,8.551-12.061,15.686a31.763,31.763,0,0,1,10.651-4.528c3.253-.731,8-1.856,12.773-.108C-1608.5,2822.4-1604.48,2824.239-1604.833,2826.013Z" transform="translate(1712.352 -2775.457)" fill="#fcf8e8"/>
      </g>
      <text id="Win_a_redesign_100_free" data-name="Win a redesign
100% free" transform="translate(-1527.07 2346.912)" fill="#fff5e4" font-size="36" font-family="BoldenVan"><tspan x="-124.416" y="0">Win a redesign</tspan><tspan x="-82.152" y="43">100% free</tspan></text>
    </g>
    <text id="click_me" data-name="click me" transform="translate(1380 2149) rotate(90)" fill="#94b49f" font-size="37" font-family="SegoeScript-Bold, Segoe Script" font-weight="700"><tspan x="0" y="0">click me</tspan></text>
    <text id="x10" transform="translate(1313.94 2130.179) rotate(30)" fill="#ee6983" stroke="#fcf8e8" stroke-width="4" font-size="80" font-family="BoldenVan"><tspan x="-63.4" y="0">x10</tspan></text>
  </g>
</svg>
